<svg width="1743" height="400" viewBox="0 0 1743 400" fill="none" xmlns="http://www.w3.org/2000/svg">
<path fill-rule="evenodd" clip-rule="evenodd" d="M268.3 0.378925C268.3 0.87359 273.113 6.49435 278.995 12.8678C284.877 19.2422 289.649 24.6767 289.598 24.9454C289.549 25.214 281.165 33.2897 270.968 42.892C260.772 52.4943 219.459 93.055 179.162 133.026L105.896 205.701L102.755 202.767C91.8839 192.616 76.3502 179.167 75.4936 179.167C74.9375 179.167 75.3555 180.15 76.4231 181.35C77.4896 182.55 83.5818 189.367 89.9608 196.5C96.3388 203.632 101.558 209.571 101.558 209.698C101.558 209.825 82.4938 229.741 59.1927 253.956C8.61981 306.514 6.29711 308.998 7.0331 309.731C7.75938 310.457 13.8836 304.781 56.834 263.579C76.0847 245.111 95.2868 226.749 99.5064 222.771L107.178 215.54L122.552 231.525L137.926 247.512L110.49 275.172C65.3354 320.698 0.97399 388.073 0.0707638 390.764C-0.631206 392.854 3.58839 389.171 26.3557 367.826C55.5157 340.489 68.7277 327.723 110.113 286.897L143.966 253.501L162.624 271.919C190.721 299.654 211.667 319.666 229.442 335.755C238.247 343.726 246.655 351.337 248.126 352.668C252.861 356.955 250.974 353.394 244.827 346.443C227.3 326.628 207.41 305.727 173.997 272.015C161.427 259.333 151.143 248.6 151.143 248.165C151.143 247.729 175.907 222.098 206.176 191.204C236.443 160.312 267.051 128.804 274.195 121.187L287.181 107.338L291.691 111.973C294.173 114.521 307.52 128.392 321.352 142.795C335.183 157.199 359.64 182.3 375.701 198.578C391.762 214.855 408.361 231.738 412.591 236.096L420.278 244.018L390.715 274.43C347.692 318.685 315.277 353.417 316.167 354.304C317.088 355.223 351.411 323.525 390.277 285.865C400.46 275.999 412.845 264.016 417.801 259.239L426.812 250.552L432.871 256.312C436.204 259.48 451.619 274.552 467.126 289.804C522.195 343.968 582.067 400.907 582.987 399.989C583.898 399.079 535.738 348.647 471.318 283.052L432.729 243.76L450.9 225.286C460.894 215.124 469.333 206.811 469.654 206.811C469.975 206.811 485.069 221.024 503.197 238.395C542.836 276.381 555.123 287.8 556.357 287.8C557.904 287.8 537.345 265.716 497.103 224.151C485.161 211.817 475.391 201.412 475.391 201.029C475.391 200.262 477.675 197.695 499.54 173.905C507.743 164.98 514.206 157.431 513.904 157.13C513.321 156.548 504.551 164.232 483.363 183.891L470.431 195.889L410.925 136.849C378.197 104.377 338.87 65.8445 323.533 51.2208L295.646 24.6321L306.858 12.5971C313.025 5.97736 317.823 0.314896 317.52 0.0132468C317.011 -0.495968 300.923 13.8115 295.622 19.4875L293.29 21.9851L285.624 14.9793C272.477 2.96765 268.3 -0.55318 268.3 0.378925ZM320.336 56.2286C335.271 71.8319 373.794 110.921 405.94 143.092L464.389 201.584L445.966 219.232C435.833 228.938 427.18 236.878 426.737 236.878C426.293 236.878 402.614 214.182 374.117 186.442C329.76 143.263 300.592 115.072 291.856 106.938L289.647 104.88L298.946 94.8619C304.061 89.3527 308 84.5991 307.701 84.2994C307.161 83.7621 304.504 86.0569 293.092 96.9182L287.259 102.47L276.803 92.8067C271.052 87.4924 266.13 83.1442 265.865 83.1442C264.691 83.1442 265.924 84.6796 274.614 94.0472C279.691 99.5205 283.847 104.243 283.85 104.542C283.853 104.842 274.778 113.748 263.682 124.336C252.585 134.924 221.069 165.613 193.642 192.532C143.981 241.278 143.769 241.47 141.745 239.663C138.603 236.858 134.478 232.924 122.653 221.451L111.75 210.874L179.574 142.836C216.876 105.416 257.459 64.2567 269.758 51.3731C282.057 38.4885 292.358 27.9269 292.65 27.9027C292.942 27.8784 305.4 40.6253 320.336 56.2286Z" fill="#C4B48E"/>
<path d="M707.562 178H659.25V173.125C661.5 172.958 664.146 172.562 667.188 171.938C670.229 171.271 671.75 170.458 671.75 169.5C671.75 169.167 671.708 168.792 671.625 168.375C671.583 167.958 671.417 167.396 671.125 166.688L663.562 148.312H632.938C632.229 150.021 631.438 152.021 630.562 154.312C629.729 156.604 629 158.646 628.375 160.438C627.583 162.771 627.104 164.458 626.938 165.5C626.812 166.542 626.75 167.271 626.75 167.688C626.75 169.021 627.75 170.167 629.75 171.125C631.792 172.042 635.167 172.708 639.875 173.125V178H603.5V173.125C604.875 173.042 606.417 172.833 608.125 172.5C609.875 172.125 611.25 171.625 612.25 171C613.958 170 615.396 168.771 616.562 167.312C617.771 165.854 618.771 164.125 619.562 162.125C624.396 150.417 629.229 138.688 634.062 126.938C638.938 115.188 644.312 102.229 650.188 88.0625H662.688C670.854 108.146 677.25 124.021 681.875 135.688C686.5 147.354 690.438 157.021 693.688 164.688C694.229 165.938 694.917 167.083 695.75 168.125C696.583 169.125 697.771 170.083 699.312 171C700.479 171.667 701.833 172.167 703.375 172.5C704.917 172.833 706.312 173.042 707.562 173.125V178ZM661 142.125L648.125 110L635.438 142.125H661ZM852.315 114.688H847.503C846.211 110.896 844.128 106.833 841.253 102.5C838.419 98.1667 835.794 95.8333 833.378 95.5C832.044 95.3333 830.398 95.1875 828.44 95.0625C826.482 94.9375 824.794 94.875 823.378 94.875H820.44V164.438C820.44 165.938 820.711 167.271 821.253 168.438C821.794 169.562 822.857 170.458 824.44 171.125C825.398 171.5 826.878 171.896 828.878 172.312C830.919 172.688 832.648 172.958 834.065 173.125V178H784.628V173.125C785.836 173 787.523 172.833 789.69 172.625C791.898 172.375 793.398 172.083 794.19 171.75C795.815 171.083 796.898 170.188 797.44 169.062C797.982 167.938 798.253 166.604 798.253 165.062V94.875H795.315C793.898 94.875 792.211 94.9375 790.253 95.0625C788.294 95.1875 786.648 95.3333 785.315 95.5C782.898 95.8333 780.253 98.1667 777.378 102.5C774.544 106.833 772.482 110.896 771.19 114.688H766.378V89.3125H852.315V114.688ZM1002.38 149.562L1000.63 178H918.943V173.125C920.401 173 922.109 172.812 924.068 172.562C926.026 172.271 927.318 172 927.943 171.75C929.443 171.167 930.484 170.354 931.068 169.312C931.651 168.271 931.943 166.938 931.943 165.312V102.75C931.943 101.25 931.713 100.021 931.255 99.0625C930.797 98.0625 929.693 97.1667 927.943 96.375C926.651 95.7917 925.088 95.3333 923.255 95C921.463 94.625 920.026 94.3542 918.943 94.1875V89.3125H967.63V94.1875C966.297 94.3125 964.713 94.5 962.88 94.75C961.088 94.9583 959.526 95.2708 958.193 95.6875C956.568 96.2292 955.484 97.0833 954.943 98.25C954.401 99.375 954.13 100.667 954.13 102.125V160.438C954.13 163.188 954.318 165.354 954.693 166.938C955.068 168.521 955.797 169.688 956.88 170.438C957.963 171.229 959.463 171.75 961.38 172C963.338 172.208 966.026 172.312 969.443 172.312C972.776 172.312 976.005 172.125 979.13 171.75C982.297 171.333 984.568 170.458 985.943 169.125C988.068 167 990.234 164.021 992.443 160.188C994.693 156.312 996.484 152.771 997.818 149.562H1002.38ZM1164.38 178H1116.07V173.125C1118.32 172.958 1120.97 172.562 1124.01 171.938C1127.05 171.271 1128.57 170.458 1128.57 169.5C1128.57 169.167 1128.53 168.792 1128.45 168.375C1128.4 167.958 1128.24 167.396 1127.95 166.688L1120.38 148.312H1089.76C1089.05 150.021 1088.26 152.021 1087.38 154.312C1086.55 156.604 1085.82 158.646 1085.2 160.438C1084.4 162.771 1083.92 164.458 1083.76 165.5C1083.63 166.542 1083.57 167.271 1083.57 167.688C1083.57 169.021 1084.57 170.167 1086.57 171.125C1088.61 172.042 1091.99 172.708 1096.7 173.125V178H1060.32V173.125C1061.7 173.042 1063.24 172.833 1064.95 172.5C1066.7 172.125 1068.07 171.625 1069.07 171C1070.78 170 1072.22 168.771 1073.38 167.312C1074.59 165.854 1075.59 164.125 1076.38 162.125C1081.22 150.417 1086.05 138.688 1090.88 126.938C1095.76 115.188 1101.13 102.229 1107.01 88.0625H1119.51C1127.67 108.146 1134.07 124.021 1138.7 135.688C1143.32 147.354 1147.26 157.021 1150.51 164.688C1151.05 165.938 1151.74 167.083 1152.57 168.125C1153.4 169.125 1154.59 170.083 1156.13 171C1157.3 171.667 1158.65 172.167 1160.2 172.5C1161.74 172.833 1163.13 173.042 1164.38 173.125V178ZM1117.82 142.125L1104.95 110L1092.26 142.125H1117.82ZM1328.57 94.1875C1327.41 94.3125 1325.74 94.5417 1323.57 94.875C1321.41 95.2083 1319.45 96.0208 1317.7 97.3125C1316.16 98.4375 1315.05 100.375 1314.39 103.125C1313.76 105.833 1313.45 109.833 1313.45 115.125V178.5H1302.32L1247.07 109.938V151.562C1247.07 156.729 1247.41 160.667 1248.07 163.375C1248.78 166.042 1249.91 168 1251.45 169.25C1252.57 170.167 1254.36 170.979 1256.82 171.688C1259.28 172.396 1261.24 172.875 1262.7 173.125V178H1224.57V173.125C1226.2 173 1228.05 172.708 1230.14 172.25C1232.26 171.75 1234.03 171 1235.45 170C1237.07 168.792 1238.18 166.979 1238.76 164.562C1239.39 162.104 1239.7 158 1239.7 152.25V110.25C1239.7 108.167 1239.36 106.208 1238.7 104.375C1238.07 102.5 1237.07 100.896 1235.7 99.5625C1234.24 98.1458 1232.55 97.0417 1230.64 96.25C1228.76 95.4167 1226.61 94.7708 1224.2 94.3125V89.3125H1257.57L1306.07 149.312V115.75C1306.07 110.417 1305.72 106.458 1305.01 103.875C1304.3 101.25 1303.18 99.3125 1301.64 98.0625C1300.43 97.1042 1298.64 96.2917 1296.26 95.625C1293.89 94.9167 1291.97 94.4375 1290.51 94.1875V89.3125H1328.57V94.1875ZM1478.08 114.688H1473.26C1471.97 110.896 1469.89 106.833 1467.01 102.5C1464.18 98.1667 1461.55 95.8333 1459.14 95.5C1457.8 95.3333 1456.16 95.1875 1454.2 95.0625C1452.24 94.9375 1450.55 94.875 1449.14 94.875H1446.2V164.438C1446.2 165.938 1446.47 167.271 1447.01 168.438C1447.55 169.562 1448.62 170.458 1450.2 171.125C1451.16 171.5 1452.64 171.896 1454.64 172.312C1456.68 172.688 1458.41 172.958 1459.83 173.125V178H1410.39V173.125C1411.6 173 1413.28 172.833 1415.45 172.625C1417.66 172.375 1419.16 172.083 1419.95 171.75C1421.58 171.083 1422.66 170.188 1423.2 169.062C1423.74 167.938 1424.01 166.604 1424.01 165.062V94.875H1421.08C1419.66 94.875 1417.97 94.9375 1416.01 95.0625C1414.05 95.1875 1412.41 95.3333 1411.08 95.5C1408.66 95.8333 1406.01 98.1667 1403.14 102.5C1400.3 106.833 1398.24 110.896 1396.95 114.688H1392.14V89.3125H1478.08V114.688ZM1593.52 178H1544.33V173.125C1545.45 173.042 1547.1 172.917 1549.27 172.75C1551.47 172.583 1552.99 172.333 1553.83 172C1555.37 171.375 1556.41 170.562 1556.95 169.562C1557.54 168.521 1557.83 167.208 1557.83 165.625V102.75C1557.83 101.333 1557.56 100.083 1557.02 99C1556.47 97.9167 1555.41 97.0417 1553.83 96.375C1552.83 95.9583 1551.35 95.5417 1549.39 95.125C1547.43 94.6667 1545.74 94.3542 1544.33 94.1875V89.3125H1593.52V94.1875C1592.27 94.3125 1590.7 94.5 1588.83 94.75C1586.95 94.9583 1585.37 95.2708 1584.08 95.6875C1582.45 96.2292 1581.37 97.0833 1580.83 98.25C1580.29 99.375 1580.02 100.667 1580.02 102.125V164.938C1580.02 166.438 1580.29 167.729 1580.83 168.812C1581.41 169.854 1582.49 170.708 1584.08 171.375C1584.95 171.75 1586.39 172.125 1588.39 172.5C1590.43 172.833 1592.14 173.042 1593.52 173.125V178ZM1700.45 180.375C1695.04 180.375 1689.98 179.708 1685.27 178.375C1680.6 177.042 1676.64 175.458 1673.39 173.625L1669.08 178H1663.77L1662.95 145.938H1668.33C1669.54 148.979 1671.08 152.188 1672.95 155.562C1674.83 158.938 1677 161.958 1679.45 164.625C1682 167.417 1684.83 169.688 1687.95 171.438C1691.12 173.188 1694.81 174.062 1699.02 174.062C1704.68 174.062 1709.02 172.688 1712.02 169.938C1715.06 167.146 1716.58 163.646 1716.58 159.438C1716.58 155.979 1715.29 153.083 1712.7 150.75C1710.16 148.375 1706.2 146.333 1700.83 144.625C1697.33 143.5 1694.1 142.458 1691.14 141.5C1688.23 140.542 1685.48 139.562 1682.89 138.562C1676.93 136.188 1672.5 132.792 1669.58 128.375C1666.7 123.958 1665.27 119.021 1665.27 113.562C1665.27 110.104 1666.02 106.792 1667.52 103.625C1669.02 100.417 1671.2 97.5417 1674.08 95C1676.83 92.625 1680.35 90.6875 1684.64 89.1875C1688.93 87.6875 1693.6 86.9375 1698.64 86.9375C1703.56 86.9375 1708.16 87.625 1712.45 89C1716.75 90.3333 1720.12 91.6875 1722.58 93.0625L1726.39 89.3125H1731.83L1732.33 119.562H1726.95C1725.7 116.312 1724.23 113 1722.52 109.625C1720.85 106.208 1719.08 103.375 1717.2 101.125C1715.16 98.7083 1712.81 96.7917 1710.14 95.375C1707.48 93.9167 1704.35 93.1875 1700.77 93.1875C1696.27 93.1875 1692.58 94.4583 1689.7 97C1686.87 99.5417 1685.45 102.688 1685.45 106.438C1685.45 109.979 1686.68 112.875 1689.14 115.125C1691.64 117.375 1695.52 119.354 1700.77 121.062C1703.85 122.104 1707 123.146 1710.2 124.188C1713.41 125.229 1716.27 126.229 1718.77 127.188C1724.81 129.521 1729.39 132.75 1732.52 136.875C1735.68 140.958 1737.27 146.042 1737.27 152.125C1737.27 155.958 1736.37 159.667 1734.58 163.25C1732.79 166.833 1730.37 169.812 1727.33 172.188C1724 174.812 1720.14 176.833 1715.77 178.25C1711.39 179.667 1706.29 180.375 1700.45 180.375Z" fill="#C4B48E"/>
<path d="M633.663 313.363C633.663 313.852 633.492 314.291 633.15 314.682C632.857 315.072 632.345 315.39 631.612 315.634C630.88 315.878 629.903 316.073 628.683 316.22C627.462 316.366 625.899 316.439 623.995 316.439C622.14 316.439 620.577 316.366 619.308 316.22C618.087 316.073 617.11 315.878 616.378 315.634C615.646 315.39 615.108 315.072 614.767 314.682C614.474 314.291 614.327 313.852 614.327 313.363V223.861C614.327 223.373 614.474 222.934 614.767 222.543C615.108 222.152 615.646 221.835 616.378 221.591C617.159 221.347 618.16 221.151 619.381 221.005C620.602 220.858 622.14 220.785 623.995 220.785C625.899 220.785 627.462 220.858 628.683 221.005C629.903 221.151 630.88 221.347 631.612 221.591C632.345 221.835 632.857 222.152 633.15 222.543C633.492 222.934 633.663 223.373 633.663 223.861V313.363ZM787.267 313.363C787.267 313.852 787.12 314.291 786.827 314.682C786.583 315.072 786.095 315.39 785.362 315.634C784.679 315.878 783.751 316.073 782.579 316.22C781.407 316.366 779.918 316.439 778.111 316.439C776.354 316.439 774.889 316.366 773.717 316.22C772.545 316.073 771.617 315.878 770.934 315.634C770.25 315.39 769.762 315.072 769.469 314.682C769.176 314.291 769.029 313.852 769.029 313.363V236.239H768.883L741.417 313.29C741.222 313.925 740.904 314.462 740.465 314.901C740.025 315.292 739.415 315.609 738.634 315.854C737.901 316.098 736.949 316.244 735.777 316.293C734.605 316.391 733.189 316.439 731.529 316.439C729.869 316.439 728.453 316.366 727.281 316.22C726.109 316.122 725.133 315.951 724.352 315.707C723.619 315.414 723.033 315.072 722.594 314.682C722.154 314.291 721.861 313.827 721.715 313.29L695.201 236.239H695.055V313.363C695.055 313.852 694.908 314.291 694.615 314.682C694.371 315.072 693.883 315.39 693.15 315.634C692.418 315.878 691.466 316.073 690.294 316.22C689.171 316.366 687.706 316.439 685.899 316.439C684.142 316.439 682.677 316.366 681.505 316.22C680.333 316.073 679.381 315.878 678.648 315.634C677.965 315.39 677.477 315.072 677.184 314.682C676.939 314.291 676.817 313.852 676.817 313.363V228.915C676.817 226.425 677.477 224.521 678.795 223.202C680.113 221.884 681.871 221.225 684.068 221.225H696.666C698.912 221.225 700.841 221.42 702.452 221.811C704.063 222.152 705.455 222.763 706.627 223.642C707.799 224.472 708.775 225.595 709.557 227.011C710.338 228.378 711.021 230.087 711.607 232.138L732.115 288.607H732.408L753.648 232.284C754.283 230.233 754.967 228.5 755.699 227.084C756.48 225.668 757.359 224.521 758.336 223.642C759.361 222.763 760.558 222.152 761.925 221.811C763.292 221.42 764.879 221.225 766.686 221.225H779.649C780.968 221.225 782.091 221.396 783.019 221.737C783.995 222.079 784.776 222.592 785.362 223.275C785.997 223.91 786.461 224.716 786.754 225.692C787.096 226.62 787.267 227.694 787.267 228.915V313.363ZM940.87 313.363C940.87 313.852 940.724 314.291 940.431 314.682C940.187 315.072 939.698 315.39 938.966 315.634C938.282 315.878 937.354 316.073 936.183 316.22C935.011 316.366 933.521 316.439 931.715 316.439C929.957 316.439 928.492 316.366 927.32 316.22C926.148 316.073 925.221 315.878 924.537 315.634C923.854 315.39 923.365 315.072 923.072 314.682C922.779 314.291 922.633 313.852 922.633 313.363V236.239H922.486L895.021 313.29C894.825 313.925 894.508 314.462 894.068 314.901C893.629 315.292 893.019 315.609 892.237 315.854C891.505 316.098 890.553 316.244 889.381 316.293C888.209 316.391 886.793 316.439 885.133 316.439C883.473 316.439 882.057 316.366 880.885 316.22C879.713 316.122 878.736 315.951 877.955 315.707C877.223 315.414 876.637 315.072 876.197 314.682C875.758 314.291 875.465 313.827 875.318 313.29L848.805 236.239H848.658V313.363C848.658 313.852 848.512 314.291 848.219 314.682C847.975 315.072 847.486 315.39 846.754 315.634C846.021 315.878 845.069 316.073 843.897 316.22C842.774 316.366 841.31 316.439 839.503 316.439C837.745 316.439 836.28 316.366 835.108 316.22C833.937 316.073 832.984 315.878 832.252 315.634C831.568 315.39 831.08 315.072 830.787 314.682C830.543 314.291 830.421 313.852 830.421 313.363V228.915C830.421 226.425 831.08 224.521 832.398 223.202C833.717 221.884 835.475 221.225 837.672 221.225H850.27C852.516 221.225 854.444 221.42 856.056 221.811C857.667 222.152 859.059 222.763 860.23 223.642C861.402 224.472 862.379 225.595 863.16 227.011C863.941 228.378 864.625 230.087 865.211 232.138L885.719 288.607H886.012L907.252 232.284C907.887 230.233 908.57 228.5 909.303 227.084C910.084 225.668 910.963 224.521 911.939 223.642C912.965 222.763 914.161 222.152 915.528 221.811C916.896 221.42 918.482 221.225 920.289 221.225H933.253C934.571 221.225 935.694 221.396 936.622 221.737C937.599 222.079 938.38 222.592 938.966 223.275C939.601 223.91 940.064 224.716 940.357 225.692C940.699 226.62 940.87 227.694 940.87 228.915V313.363ZM1069.28 267.514C1069.28 275.375 1068.3 282.406 1066.35 288.607C1064.4 294.809 1061.49 300.082 1057.63 304.428C1053.78 308.725 1048.99 312.021 1043.28 314.315C1037.61 316.562 1031.05 317.685 1023.58 317.685C1016.2 317.685 1009.76 316.732 1004.24 314.828C998.771 312.875 994.205 309.921 990.543 305.966C986.881 302.011 984.122 296.981 982.267 290.878C980.46 284.774 979.557 277.548 979.557 269.198C979.557 261.532 980.533 254.647 982.486 248.544C984.439 242.392 987.345 237.167 991.202 232.87C995.06 228.573 999.82 225.277 1005.48 222.982C1011.2 220.688 1017.81 219.54 1025.33 219.54C1032.51 219.54 1038.83 220.492 1044.3 222.396C1049.82 224.301 1054.41 227.23 1058.07 231.186C1061.78 235.141 1064.57 240.146 1066.42 246.2C1068.33 252.206 1069.28 259.311 1069.28 267.514ZM1049.06 268.539C1049.06 263.559 1048.67 259.042 1047.89 254.989C1047.11 250.888 1045.77 247.396 1043.86 244.516C1042.01 241.586 1039.52 239.34 1036.39 237.777C1033.27 236.166 1029.36 235.36 1024.67 235.36C1019.94 235.36 1015.98 236.264 1012.81 238.07C1009.63 239.828 1007.07 242.196 1005.12 245.175C1003.17 248.153 1001.77 251.645 1000.94 255.648C1000.16 259.604 999.771 263.803 999.771 268.246C999.771 273.422 1000.16 278.085 1000.94 282.235C1001.72 286.337 1003.04 289.853 1004.9 292.782C1006.75 295.712 1009.24 297.958 1012.37 299.521C1015.49 301.034 1019.42 301.791 1024.16 301.791C1028.9 301.791 1032.85 300.912 1036.03 299.154C1039.2 297.396 1041.76 295.004 1043.72 291.977C1045.67 288.949 1047.04 285.434 1047.82 281.43C1048.65 277.377 1049.06 273.08 1049.06 268.539ZM1176.67 287.582C1176.67 290.951 1176.2 294.003 1175.27 296.737C1174.35 299.472 1173.05 301.889 1171.39 303.988C1169.78 306.088 1167.83 307.895 1165.53 309.408C1163.29 310.922 1160.8 312.167 1158.06 313.144C1155.33 314.12 1152.4 314.853 1149.27 315.341C1146.2 315.78 1142.75 316 1138.95 316H1113.75C1112.14 316 1110.77 315.536 1109.65 314.608C1108.58 313.632 1108.04 312.069 1108.04 309.921V227.304C1108.04 225.155 1108.58 223.617 1109.65 222.689C1110.77 221.713 1112.14 221.225 1113.75 221.225H1137.55C1143.37 221.225 1148.27 221.713 1152.28 222.689C1156.33 223.666 1159.72 225.155 1162.46 227.157C1165.24 229.11 1167.36 231.601 1168.83 234.628C1170.29 237.655 1171.03 241.22 1171.03 245.321C1171.03 247.616 1170.73 249.789 1170.15 251.84C1169.56 253.842 1168.71 255.673 1167.58 257.333C1166.46 258.993 1165.07 260.458 1163.41 261.728C1161.8 262.997 1159.94 264.022 1157.84 264.804C1160.53 265.292 1162.99 266.146 1165.24 267.367C1167.54 268.588 1169.51 270.175 1171.17 272.128C1172.88 274.032 1174.22 276.278 1175.2 278.866C1176.18 281.454 1176.67 284.359 1176.67 287.582ZM1151.76 247.665C1151.76 245.761 1151.47 244.052 1150.88 242.538C1150.3 241.024 1149.42 239.779 1148.25 238.803C1147.08 237.777 1145.59 236.996 1143.78 236.459C1142.02 235.922 1139.65 235.653 1136.68 235.653H1126.93V260.263H1137.7C1140.48 260.263 1142.71 259.945 1144.37 259.311C1146.03 258.627 1147.39 257.724 1148.47 256.601C1149.59 255.429 1150.42 254.086 1150.96 252.572C1151.5 251.01 1151.76 249.374 1151.76 247.665ZM1156.67 288.241C1156.67 286.044 1156.3 284.091 1155.57 282.382C1154.84 280.624 1153.77 279.159 1152.35 277.987C1150.93 276.815 1149.13 275.912 1146.93 275.277C1144.73 274.643 1141.88 274.325 1138.36 274.325H1126.93V301.278H1140.85C1143.54 301.278 1145.78 301.01 1147.59 300.473C1149.44 299.887 1151.03 299.057 1152.35 297.982C1153.72 296.859 1154.77 295.492 1155.5 293.881C1156.28 292.221 1156.67 290.341 1156.67 288.241ZM1233.96 313.363C1233.96 313.852 1233.79 314.291 1233.44 314.682C1233.15 315.072 1232.64 315.39 1231.91 315.634C1231.17 315.878 1230.2 316.073 1228.98 316.22C1227.75 316.366 1226.19 316.439 1224.29 316.439C1222.43 316.439 1220.87 316.366 1219.6 316.22C1218.38 316.073 1217.4 315.878 1216.67 315.634C1215.94 315.39 1215.4 315.072 1215.06 314.682C1214.77 314.291 1214.62 313.852 1214.62 313.363V223.861C1214.62 223.373 1214.77 222.934 1215.06 222.543C1215.4 222.152 1215.94 221.835 1216.67 221.591C1217.45 221.347 1218.45 221.151 1219.67 221.005C1220.89 220.858 1222.43 220.785 1224.29 220.785C1226.19 220.785 1227.75 220.858 1228.98 221.005C1230.2 221.151 1231.17 221.347 1231.91 221.591C1232.64 221.835 1233.15 222.152 1233.44 222.543C1233.79 222.934 1233.96 223.373 1233.96 223.861V313.363ZM1329.19 307.943C1329.19 309.408 1329.11 310.653 1328.97 311.679C1328.87 312.655 1328.7 313.485 1328.45 314.169C1328.21 314.804 1327.89 315.268 1327.5 315.561C1327.16 315.854 1326.74 316 1326.26 316H1282.82C1281.21 316 1279.84 315.536 1278.72 314.608C1277.65 313.632 1277.11 312.069 1277.11 309.921V223.861C1277.11 223.373 1277.26 222.934 1277.55 222.543C1277.89 222.152 1278.43 221.835 1279.16 221.591C1279.89 221.347 1280.87 221.151 1282.09 221.005C1283.36 220.858 1284.92 220.785 1286.78 220.785C1288.68 220.785 1290.25 220.858 1291.47 221.005C1292.69 221.151 1293.66 221.347 1294.4 221.591C1295.13 221.835 1295.64 222.152 1295.93 222.543C1296.28 222.934 1296.45 223.373 1296.45 223.861V300.106H1326.26C1326.74 300.106 1327.16 300.253 1327.5 300.546C1327.89 300.79 1328.21 301.229 1328.45 301.864C1328.7 302.45 1328.87 303.256 1328.97 304.281C1329.11 305.258 1329.19 306.479 1329.19 307.943ZM1382.37 313.363C1382.37 313.852 1382.2 314.291 1381.86 314.682C1381.57 315.072 1381.06 315.39 1380.32 315.634C1379.59 315.878 1378.61 316.073 1377.39 316.22C1376.17 316.366 1374.61 316.439 1372.71 316.439C1370.85 316.439 1369.29 316.366 1368.02 316.22C1366.8 316.073 1365.82 315.878 1365.09 315.634C1364.36 315.39 1363.82 315.072 1363.48 314.682C1363.18 314.291 1363.04 313.852 1363.04 313.363V223.861C1363.04 223.373 1363.18 222.934 1363.48 222.543C1363.82 222.152 1364.36 221.835 1365.09 221.591C1365.87 221.347 1366.87 221.151 1368.09 221.005C1369.31 220.858 1370.85 220.785 1372.71 220.785C1374.61 220.785 1376.17 220.858 1377.39 221.005C1378.61 221.151 1379.59 221.347 1380.32 221.591C1381.06 221.835 1381.57 222.152 1381.86 222.543C1382.2 222.934 1382.37 223.373 1382.37 223.861V313.363ZM1481.71 308.456C1481.71 309.872 1481.63 311.068 1481.49 312.045C1481.39 312.973 1481.22 313.729 1480.97 314.315C1480.73 314.901 1480.41 315.341 1480.02 315.634C1479.68 315.878 1479.29 316 1478.85 316H1431.24C1429.63 316 1428.26 315.536 1427.14 314.608C1426.07 313.632 1425.53 312.069 1425.53 309.921V227.304C1425.53 225.155 1426.07 223.617 1427.14 222.689C1428.26 221.713 1429.63 221.225 1431.24 221.225H1478.56C1479 221.225 1479.39 221.347 1479.73 221.591C1480.07 221.835 1480.36 222.274 1480.61 222.909C1480.85 223.495 1481.02 224.276 1481.12 225.253C1481.27 226.181 1481.34 227.377 1481.34 228.842C1481.34 230.209 1481.27 231.381 1481.12 232.357C1481.02 233.285 1480.85 234.042 1480.61 234.628C1480.36 235.214 1480.07 235.653 1479.73 235.946C1479.39 236.19 1479 236.312 1478.56 236.312H1444.72V259.457H1473.36C1473.79 259.457 1474.19 259.604 1474.53 259.896C1474.92 260.141 1475.24 260.556 1475.48 261.142C1475.72 261.679 1475.89 262.436 1475.99 263.412C1476.14 264.34 1476.21 265.487 1476.21 266.854C1476.21 268.271 1476.14 269.442 1475.99 270.37C1475.89 271.298 1475.72 272.055 1475.48 272.641C1475.24 273.178 1474.92 273.568 1474.53 273.812C1474.19 274.057 1473.79 274.179 1473.36 274.179H1444.72V300.912H1478.85C1479.29 300.912 1479.68 301.059 1480.02 301.352C1480.41 301.596 1480.73 302.011 1480.97 302.597C1481.22 303.183 1481.39 303.964 1481.49 304.94C1481.63 305.868 1481.71 307.04 1481.71 308.456ZM1591.58 313.51C1591.58 314.047 1591.49 314.511 1591.29 314.901C1591.09 315.243 1590.63 315.536 1589.9 315.78C1589.17 316.024 1588.09 316.195 1586.68 316.293C1585.26 316.391 1583.33 316.439 1580.89 316.439C1578.84 316.439 1577.2 316.391 1575.98 316.293C1574.76 316.195 1573.79 316.024 1573.05 315.78C1572.37 315.487 1571.88 315.146 1571.59 314.755C1571.29 314.315 1571.05 313.803 1570.86 313.217L1562.36 292.05C1561.33 289.657 1560.33 287.533 1559.36 285.678C1558.38 283.822 1557.28 282.284 1556.06 281.063C1554.89 279.794 1553.52 278.842 1551.96 278.207C1550.4 277.572 1548.59 277.255 1546.54 277.255H1540.53V313.363C1540.53 313.852 1540.36 314.291 1540.02 314.682C1539.73 315.072 1539.21 315.39 1538.48 315.634C1537.75 315.878 1536.77 316.073 1535.55 316.22C1534.33 316.366 1532.77 316.439 1530.87 316.439C1529.01 316.439 1527.45 316.366 1526.18 316.22C1524.96 316.073 1523.98 315.878 1523.25 315.634C1522.52 315.39 1522 315.072 1521.71 314.682C1521.42 314.291 1521.27 313.852 1521.27 313.363V227.304C1521.27 225.155 1521.81 223.617 1522.88 222.689C1524 221.713 1525.37 221.225 1526.98 221.225H1551.52C1554.01 221.225 1556.06 221.273 1557.67 221.371C1559.28 221.469 1560.75 221.591 1562.07 221.737C1565.88 222.274 1569.29 223.202 1572.32 224.521C1575.4 225.839 1577.98 227.572 1580.08 229.721C1582.23 231.82 1583.87 234.335 1584.99 237.265C1586.11 240.146 1586.68 243.466 1586.68 247.226C1586.68 250.399 1586.26 253.305 1585.43 255.941C1584.65 258.529 1583.48 260.849 1581.92 262.899C1580.35 264.95 1578.42 266.732 1576.13 268.246C1573.83 269.76 1571.22 270.98 1568.29 271.908C1569.71 272.592 1571.03 273.422 1572.25 274.398C1573.52 275.375 1574.69 276.571 1575.76 277.987C1576.89 279.354 1577.94 280.941 1578.91 282.748C1579.89 284.506 1580.84 286.508 1581.77 288.754L1589.75 307.431C1590.48 309.286 1590.97 310.653 1591.22 311.532C1591.46 312.362 1591.58 313.021 1591.58 313.51ZM1566.75 249.203C1566.75 246.078 1566.05 243.441 1564.63 241.293C1563.21 239.145 1560.89 237.631 1557.67 236.752C1556.7 236.508 1555.57 236.312 1554.3 236.166C1553.08 236.02 1551.37 235.946 1549.18 235.946H1540.53V262.826H1550.35C1553.08 262.826 1555.47 262.509 1557.53 261.874C1559.58 261.19 1561.29 260.263 1562.65 259.091C1564.02 257.87 1565.04 256.43 1565.73 254.77C1566.41 253.109 1566.75 251.254 1566.75 249.203Z" fill="white"/>
</svg>
