<svg width="1703" height="318" viewBox="0 0 1703 318" fill="none" xmlns="http://www.w3.org/2000/svg">
<path fill-rule="evenodd" clip-rule="evenodd" d="M213.075 0.301245C213.075 0.694504 216.897 5.16301 221.569 10.2299C226.24 15.2975 230.03 19.618 229.99 19.8316C229.95 20.0452 223.292 26.4653 215.194 34.0992C207.097 41.733 174.287 73.9787 142.285 105.756L84.0992 163.532L81.6045 161.2C72.9713 153.129 60.6349 142.438 59.9546 142.438C59.5129 142.438 59.845 143.219 60.6928 144.173C61.5398 145.127 66.378 150.547 71.444 156.218C76.5092 161.888 80.654 166.609 80.654 166.71C80.654 166.811 65.514 182.644 47.009 201.895C6.84558 243.678 5.00096 245.653 5.58547 246.236C6.16225 246.813 11.0259 242.301 45.1358 209.545C60.424 194.863 75.6737 180.265 79.0248 177.103L85.117 171.354L97.3267 184.063L109.536 196.772L87.7476 218.762C51.8873 254.955 0.773512 308.518 0.0561983 310.657C-0.501283 312.319 2.84979 309.391 20.9309 292.422C44.0888 270.688 54.5813 260.54 87.448 228.083L114.333 201.533L129.151 216.176C151.464 238.225 168.099 254.135 182.215 266.925C189.209 273.262 195.885 279.313 197.053 280.371C200.814 283.779 199.316 280.948 194.434 275.422C180.514 259.669 164.719 243.053 138.183 216.252C128.201 206.17 120.033 197.637 120.033 197.291C120.033 196.945 139.7 176.568 163.738 152.007C187.775 127.448 212.084 102.399 217.757 96.3436L228.07 85.3339L231.652 89.0181C233.622 91.0446 244.222 102.071 255.208 113.522C266.192 124.973 285.615 144.929 298.37 157.869C311.125 170.81 324.307 184.232 327.666 187.696L333.772 193.994L310.293 218.172C276.126 253.355 250.383 280.966 251.09 281.672C251.821 282.402 279.08 257.203 309.946 227.263C318.032 219.419 327.869 209.893 331.804 206.095L338.96 199.189L343.772 203.768C346.419 206.286 358.661 218.269 370.977 230.394C414.711 273.454 462.259 318.721 462.99 317.991C463.713 317.268 425.466 277.174 374.306 225.026L343.659 193.789L358.091 179.102C366.027 171.023 372.73 164.414 372.984 164.414C373.239 164.414 385.227 175.714 399.623 189.524C431.103 219.723 440.861 228.801 441.841 228.801C443.07 228.801 426.742 211.245 394.783 178.2C385.299 168.395 377.54 160.122 377.54 159.818C377.54 159.208 379.354 157.168 396.719 138.254C403.234 131.159 408.366 125.158 408.126 124.918C407.663 124.455 400.699 130.565 383.872 146.193L373.601 155.732L326.344 108.795C300.352 82.9797 269.12 52.3464 256.939 40.7206L234.792 19.5825L243.697 10.0147C248.594 4.752 252.405 0.250342 252.165 0.0105312C251.76 -0.394294 238.983 10.9801 234.774 15.4926L232.921 17.4782L226.833 11.9085C216.392 2.35928 213.075 -0.439778 213.075 0.301245ZM254.401 44.7017C266.261 57.1063 296.855 88.1823 322.385 113.758L368.803 160.259L354.172 174.289C346.125 182.005 339.253 188.318 338.901 188.318C338.548 188.318 319.743 170.275 297.112 148.221C261.885 113.894 238.721 91.4826 231.783 85.0154L230.028 83.3799L237.414 75.4152C241.476 71.0354 244.604 67.2563 244.366 67.018C243.937 66.5908 241.827 68.4152 232.765 77.05L228.132 81.4637L219.828 73.7813C215.261 69.5565 211.352 66.0996 211.142 66.0996C210.209 66.0996 211.188 67.3203 218.089 74.7675C222.122 79.1188 225.422 82.8733 225.425 83.1108C225.427 83.3491 218.22 90.43 209.408 98.8473C200.595 107.265 175.566 131.662 153.784 153.063C114.345 191.816 114.177 191.969 112.569 190.532C110.074 188.302 106.799 185.175 97.407 176.053L88.7483 167.645L142.612 113.554C172.236 83.8055 204.466 51.0841 214.233 40.8416C224.001 30.5984 232.182 22.2019 232.413 22.1826C232.645 22.1633 242.539 32.2971 254.401 44.7017Z" fill="#C4B48E"/>
<path d="M515.088 313.773C515.088 314.251 514.928 314.681 514.608 315.063C514.334 315.445 513.855 315.755 513.169 315.994C512.484 316.233 511.571 316.424 510.429 316.567C509.287 316.71 507.825 316.782 506.044 316.782C504.308 316.782 502.847 316.71 501.659 316.567C500.517 316.424 499.604 316.233 498.918 315.994C498.233 315.755 497.731 315.445 497.411 315.063C497.137 314.681 497 314.251 497 313.773V226.227C497 225.749 497.137 225.319 497.411 224.937C497.731 224.555 498.233 224.245 498.918 224.006C499.649 223.767 500.586 223.576 501.727 223.433C502.869 223.29 504.308 223.218 506.044 223.218C507.825 223.218 509.287 223.29 510.429 223.433C511.571 223.576 512.484 223.767 513.169 224.006C513.855 224.245 514.334 224.555 514.608 224.937C514.928 225.319 515.088 225.749 515.088 226.227V313.773Z" fill="#F7F5F0"/>
<path d="M689.646 313.773C689.646 314.251 689.509 314.681 689.235 315.063C689.006 315.445 688.549 315.755 687.864 315.994C687.225 316.233 686.357 316.424 685.261 316.567C684.164 316.71 682.771 316.782 681.081 316.782C679.437 316.782 678.067 316.71 676.97 316.567C675.874 316.424 675.006 316.233 674.367 315.994C673.727 315.755 673.271 315.445 672.997 315.063C672.723 314.681 672.586 314.251 672.586 313.773V238.334H672.449L646.756 313.701C646.573 314.322 646.276 314.848 645.865 315.278C645.454 315.66 644.883 315.97 644.152 316.209C643.467 316.448 642.576 316.591 641.48 316.639C640.384 316.734 639.059 316.782 637.506 316.782C635.953 316.782 634.629 316.71 633.532 316.567C632.436 316.472 631.523 316.304 630.792 316.066C630.107 315.779 629.559 315.445 629.148 315.063C628.736 314.681 628.462 314.227 628.325 313.701L603.523 238.334H603.386V313.773C603.386 314.251 603.249 314.681 602.975 315.063C602.747 315.445 602.29 315.755 601.605 315.994C600.92 316.233 600.029 316.424 598.933 316.567C597.882 316.71 596.512 316.782 594.822 316.782C593.178 316.782 591.807 316.71 590.711 316.567C589.615 316.424 588.724 316.233 588.039 315.994C587.4 315.755 586.943 315.445 586.669 315.063C586.44 314.681 586.326 314.251 586.326 313.773V231.17C586.326 228.734 586.943 226.872 588.176 225.582C589.409 224.293 591.054 223.648 593.109 223.648H604.894C606.995 223.648 608.799 223.839 610.306 224.221C611.813 224.555 613.115 225.152 614.211 226.012C615.308 226.824 616.221 227.922 616.952 229.307C617.683 230.645 618.322 232.316 618.87 234.322L638.054 289.558H638.328L658.198 234.466C658.791 232.46 659.431 230.764 660.116 229.379C660.847 227.994 661.669 226.872 662.583 226.012C663.542 225.152 664.661 224.555 665.94 224.221C667.219 223.839 668.703 223.648 670.393 223.648H682.52C683.753 223.648 684.804 223.815 685.672 224.149C686.585 224.484 687.316 224.985 687.864 225.654C688.458 226.275 688.892 227.063 689.166 228.018C689.486 228.925 689.646 229.976 689.646 231.17V313.773Z" fill="#F7F5F0"/>
<path d="M864.203 313.773C864.203 314.251 864.066 314.681 863.792 315.063C863.564 315.445 863.107 315.755 862.422 315.994C861.783 316.233 860.915 316.424 859.819 316.567C858.722 316.71 857.329 316.782 855.639 316.782C853.995 316.782 852.625 316.71 851.528 316.567C850.432 316.424 849.564 316.233 848.925 315.994C848.285 315.755 847.829 315.445 847.555 315.063C847.28 314.681 847.143 314.251 847.143 313.773V238.334H847.006L821.314 313.701C821.131 314.322 820.834 314.848 820.423 315.278C820.012 315.66 819.441 315.97 818.71 316.209C818.025 316.448 817.134 316.591 816.038 316.639C814.942 316.734 813.617 316.782 812.064 316.782C810.511 316.782 809.187 316.71 808.09 316.567C806.994 316.472 806.081 316.304 805.35 316.066C804.665 315.779 804.116 315.445 803.705 315.063C803.294 314.681 803.02 314.227 802.883 313.701L778.081 238.334H777.944V313.773C777.944 314.251 777.807 314.681 777.533 315.063C777.305 315.445 776.848 315.755 776.163 315.994C775.478 316.233 774.587 316.424 773.491 316.567C772.44 316.71 771.07 316.782 769.38 316.782C767.735 316.782 766.365 316.71 765.269 316.567C764.173 316.424 763.282 316.233 762.597 315.994C761.957 315.755 761.501 315.445 761.227 315.063C760.998 314.681 760.884 314.251 760.884 313.773V231.17C760.884 228.734 761.501 226.872 762.734 225.582C763.967 224.293 765.611 223.648 767.667 223.648H779.451C781.552 223.648 783.357 223.839 784.864 224.221C786.371 224.555 787.673 225.152 788.769 226.012C789.866 226.824 790.779 227.922 791.51 229.307C792.241 230.645 792.88 232.316 793.428 234.322L812.612 289.558H812.886L832.755 234.466C833.349 232.46 833.989 230.764 834.674 229.379C835.405 227.994 836.227 226.872 837.14 226.012C838.1 225.152 839.219 224.555 840.498 224.221C841.776 223.839 843.261 223.648 844.951 223.648H857.078C858.311 223.648 859.362 223.815 860.23 224.149C861.143 224.484 861.874 224.985 862.422 225.654C863.016 226.275 863.45 227.063 863.724 228.018C864.044 228.925 864.203 229.976 864.203 231.17V313.773Z" fill="#F7F5F0"/>
<path d="M1015.19 268.925C1015.19 276.615 1014.28 283.493 1012.45 289.558C1010.62 295.624 1007.91 300.782 1004.3 305.033C1000.69 309.236 996.214 312.46 990.87 314.704C985.571 316.901 979.428 318 972.44 318C965.542 318 959.513 317.069 954.352 315.206C949.236 313.296 944.965 310.406 941.54 306.537C938.114 302.669 935.533 297.749 933.798 291.779C932.108 285.809 931.263 278.74 931.263 270.573C931.263 263.075 932.176 256.34 934.003 250.37C935.83 244.352 938.548 239.242 942.156 235.039C945.765 230.836 950.218 227.612 955.517 225.367C960.861 223.122 967.05 222 974.084 222C980.798 222 986.713 222.931 991.829 224.794C996.991 226.657 1001.28 229.522 1004.71 233.391C1008.18 237.26 1010.78 242.155 1012.52 248.078C1014.3 253.952 1015.19 260.901 1015.19 268.925ZM996.283 269.928C996.283 265.057 995.917 260.639 995.186 256.675C994.455 252.663 993.199 249.248 991.418 246.43C989.682 243.564 987.353 241.367 984.43 239.839C981.506 238.263 977.852 237.475 973.467 237.475C969.037 237.475 965.337 238.358 962.368 240.125C959.399 241.845 957.001 244.161 955.174 247.075C953.347 249.988 952.045 253.403 951.269 257.319C950.538 261.188 950.172 265.296 950.172 269.642C950.172 274.704 950.538 279.266 951.269 283.325C952 287.337 953.233 290.776 954.968 293.642C956.704 296.507 959.034 298.704 961.957 300.233C964.88 301.713 968.557 302.454 972.988 302.454C977.418 302.454 981.118 301.594 984.087 299.875C987.056 298.155 989.454 295.815 991.281 292.854C993.108 289.893 994.387 286.454 995.118 282.537C995.894 278.573 996.283 274.37 996.283 269.928Z" fill="#F7F5F0"/>
<path d="M1146.52 288.555C1146.52 291.851 1146.08 294.836 1145.22 297.51C1144.35 300.185 1143.14 302.549 1141.58 304.603C1140.08 306.657 1138.25 308.424 1136.1 309.904C1134 311.385 1131.67 312.603 1129.12 313.558C1126.56 314.513 1123.82 315.23 1120.89 315.707C1118.02 316.137 1114.8 316.352 1111.23 316.352H1087.66C1086.16 316.352 1084.88 315.899 1083.83 314.991C1082.82 314.036 1082.32 312.507 1082.32 310.406V229.594C1082.32 227.493 1082.82 225.988 1083.83 225.081C1084.88 224.125 1086.16 223.648 1087.66 223.648H1109.93C1115.37 223.648 1119.96 224.125 1123.7 225.081C1127.49 226.036 1130.67 227.493 1133.23 229.451C1135.83 231.361 1137.82 233.797 1139.19 236.758C1140.56 239.719 1141.24 243.206 1141.24 247.218C1141.24 249.463 1140.97 251.588 1140.42 253.594C1139.87 255.552 1139.07 257.343 1138.02 258.967C1136.97 260.591 1135.67 262.024 1134.12 263.266C1132.61 264.507 1130.87 265.51 1128.91 266.275C1131.42 266.752 1133.73 267.588 1135.83 268.782C1137.98 269.976 1139.83 271.528 1141.38 273.439C1142.98 275.301 1144.23 277.499 1145.15 280.03C1146.06 282.561 1146.52 285.403 1146.52 288.555ZM1123.22 249.51C1123.22 247.648 1122.95 245.976 1122.4 244.496C1121.85 243.015 1121.03 241.797 1119.93 240.842C1118.84 239.839 1117.44 239.075 1115.75 238.549C1114.11 238.024 1111.9 237.761 1109.11 237.761H1100V261.833H1110.07C1112.67 261.833 1114.75 261.522 1116.3 260.901C1117.86 260.233 1119.13 259.349 1120.14 258.251C1121.19 257.104 1121.97 255.791 1122.47 254.31C1122.97 252.782 1123.22 251.182 1123.22 249.51ZM1127.81 289.2C1127.81 287.051 1127.47 285.14 1126.79 283.469C1126.1 281.749 1125.1 280.316 1123.77 279.17C1122.45 278.024 1120.76 277.14 1118.7 276.519C1116.65 275.899 1113.97 275.588 1110.68 275.588H1100V301.952H1113.01C1115.53 301.952 1117.63 301.69 1119.32 301.164C1121.05 300.591 1122.54 299.779 1123.77 298.728C1125.05 297.63 1126.03 296.293 1126.72 294.716C1127.45 293.093 1127.81 291.254 1127.81 289.2Z" fill="#F7F5F0"/>
<path d="M1230.98 313.773C1230.98 314.251 1230.82 314.681 1230.5 315.063C1230.23 315.445 1229.75 315.755 1229.06 315.994C1228.38 316.233 1227.46 316.424 1226.32 316.567C1225.18 316.71 1223.72 316.782 1221.94 316.782C1220.2 316.782 1218.74 316.71 1217.55 316.567C1216.41 316.424 1215.5 316.233 1214.81 315.994C1214.12 315.755 1213.62 315.445 1213.3 315.063C1213.03 314.681 1212.89 314.251 1212.89 313.773V226.227C1212.89 225.749 1213.03 225.319 1213.3 224.937C1213.62 224.555 1214.12 224.245 1214.81 224.006C1215.54 223.767 1216.48 223.576 1217.62 223.433C1218.76 223.29 1220.2 223.218 1221.94 223.218C1223.72 223.218 1225.18 223.29 1226.32 223.433C1227.46 223.576 1228.38 223.767 1229.06 224.006C1229.75 224.245 1230.23 224.555 1230.5 224.937C1230.82 225.319 1230.98 225.749 1230.98 226.227V313.773Z" fill="#F7F5F0"/>
<path d="M1350.93 308.472C1350.93 309.904 1350.86 311.122 1350.73 312.125C1350.63 313.081 1350.47 313.893 1350.25 314.561C1350.02 315.182 1349.72 315.636 1349.36 315.922C1349.04 316.209 1348.65 316.352 1348.19 316.352H1307.56C1306.05 316.352 1304.78 315.899 1303.73 314.991C1302.72 314.036 1302.22 312.507 1302.22 310.406V226.227C1302.22 225.749 1302.35 225.319 1302.63 224.937C1302.95 224.555 1303.45 224.245 1304.14 224.006C1304.82 223.767 1305.73 223.576 1306.88 223.433C1308.06 223.29 1309.53 223.218 1311.26 223.218C1313.04 223.218 1314.5 223.29 1315.65 223.433C1316.79 223.576 1317.7 223.767 1318.39 224.006C1319.07 224.245 1319.55 224.555 1319.83 224.937C1320.15 225.319 1320.31 225.749 1320.31 226.227V300.806H1348.19C1348.65 300.806 1349.04 300.949 1349.36 301.236C1349.72 301.475 1350.02 301.904 1350.25 302.525C1350.47 303.099 1350.63 303.887 1350.73 304.89C1350.86 305.845 1350.93 307.039 1350.93 308.472Z" fill="#F7F5F0"/>
<path d="M1431.56 313.773C1431.56 314.251 1431.4 314.681 1431.08 315.063C1430.8 315.445 1430.32 315.755 1429.64 315.994C1428.95 316.233 1428.04 316.424 1426.9 316.567C1425.76 316.71 1424.29 316.782 1422.51 316.782C1420.78 316.782 1419.32 316.71 1418.13 316.567C1416.99 316.424 1416.07 316.233 1415.39 315.994C1414.7 315.755 1414.2 315.445 1413.88 315.063C1413.61 314.681 1413.47 314.251 1413.47 313.773V226.227C1413.47 225.749 1413.61 225.319 1413.88 224.937C1414.2 224.555 1414.7 224.245 1415.39 224.006C1416.12 223.767 1417.05 223.576 1418.2 223.433C1419.34 223.29 1420.78 223.218 1422.51 223.218C1424.29 223.218 1425.76 223.29 1426.9 223.433C1428.04 223.576 1428.95 223.767 1429.64 224.006C1430.32 224.245 1430.8 224.555 1431.08 224.937C1431.4 225.319 1431.56 225.749 1431.56 226.227V313.773Z" fill="#F7F5F0"/>
<path d="M1555.35 308.973C1555.35 310.358 1555.28 311.528 1555.14 312.484C1555.05 313.391 1554.89 314.131 1554.66 314.704C1554.43 315.278 1554.13 315.707 1553.77 315.994C1553.45 316.233 1553.08 316.352 1552.67 316.352H1508.14C1506.63 316.352 1505.35 315.899 1504.3 314.991C1503.3 314.036 1502.79 312.507 1502.79 310.406V229.594C1502.79 227.493 1503.3 225.988 1504.3 225.081C1505.35 224.125 1506.63 223.648 1508.14 223.648H1552.4C1552.81 223.648 1553.18 223.767 1553.5 224.006C1553.81 224.245 1554.09 224.675 1554.32 225.296C1554.55 225.869 1554.71 226.633 1554.8 227.588C1554.93 228.496 1555 229.666 1555 231.099C1555 232.436 1554.93 233.582 1554.8 234.537C1554.71 235.445 1554.55 236.185 1554.32 236.758C1554.09 237.331 1553.81 237.761 1553.5 238.048C1553.18 238.287 1552.81 238.406 1552.4 238.406H1520.75V261.045H1547.53C1547.95 261.045 1548.31 261.188 1548.63 261.475C1549 261.713 1549.29 262.119 1549.52 262.693C1549.75 263.218 1549.91 263.958 1550 264.913C1550.14 265.821 1550.21 266.943 1550.21 268.281C1550.21 269.666 1550.14 270.812 1550 271.719C1549.91 272.627 1549.75 273.367 1549.52 273.94C1549.29 274.466 1549 274.848 1548.63 275.087C1548.31 275.325 1547.95 275.445 1547.53 275.445H1520.75V301.594H1552.67C1553.08 301.594 1553.45 301.737 1553.77 302.024C1554.13 302.263 1554.43 302.669 1554.66 303.242C1554.89 303.815 1555.05 304.579 1555.14 305.534C1555.28 306.442 1555.35 307.588 1555.35 308.973Z" fill="#F7F5F0"/>
<path d="M1689 313.916C1689 314.442 1688.91 314.896 1688.73 315.278C1688.54 315.612 1688.11 315.899 1687.42 316.137C1686.74 316.376 1685.73 316.543 1684.41 316.639C1683.08 316.734 1681.28 316.782 1679 316.782C1677.08 316.782 1675.55 316.734 1674.41 316.639C1673.26 316.543 1672.35 316.376 1671.67 316.137C1671.03 315.851 1670.57 315.516 1670.3 315.134C1670.02 314.704 1669.79 314.203 1669.61 313.63L1661.66 292.925C1660.7 290.585 1659.77 288.507 1658.85 286.693C1657.94 284.878 1656.91 283.373 1655.77 282.179C1654.67 280.937 1653.4 280.006 1651.93 279.385C1650.47 278.764 1648.78 278.454 1646.86 278.454H1641.25V313.773C1641.25 314.251 1641.09 314.681 1640.77 315.063C1640.49 315.445 1640.01 315.755 1639.33 315.994C1638.64 316.233 1637.73 316.424 1636.59 316.567C1635.44 316.71 1633.98 316.782 1632.2 316.782C1630.47 316.782 1629 316.71 1627.82 316.567C1626.67 316.424 1625.76 316.233 1625.08 315.994C1624.39 315.755 1623.91 315.445 1623.64 315.063C1623.36 314.681 1623.23 314.251 1623.23 313.773V229.594C1623.23 227.493 1623.73 225.988 1624.73 225.081C1625.78 224.125 1627.06 223.648 1628.57 223.648H1651.52C1653.85 223.648 1655.77 223.696 1657.28 223.791C1658.79 223.887 1660.16 224.006 1661.39 224.149C1664.95 224.675 1668.15 225.582 1670.98 226.872C1673.86 228.161 1676.28 229.857 1678.24 231.958C1680.25 234.012 1681.78 236.472 1682.83 239.337C1683.88 242.155 1684.41 245.403 1684.41 249.081C1684.41 252.185 1684.02 255.027 1683.24 257.606C1682.51 260.137 1681.42 262.406 1679.96 264.412C1678.49 266.418 1676.69 268.161 1674.54 269.642C1672.4 271.122 1669.95 272.316 1667.21 273.224C1668.54 273.893 1669.77 274.704 1670.91 275.66C1672.1 276.615 1673.2 277.785 1674.2 279.17C1675.25 280.507 1676.23 282.06 1677.15 283.827C1678.06 285.546 1678.95 287.504 1679.82 289.701L1687.29 307.97C1687.97 309.785 1688.43 311.122 1688.66 311.982C1688.89 312.794 1689 313.439 1689 313.916ZM1665.77 251.015C1665.77 247.958 1665.11 245.379 1663.79 243.278C1662.46 241.176 1660.29 239.696 1657.28 238.836C1656.36 238.597 1655.31 238.406 1654.13 238.263C1652.98 238.119 1651.39 238.048 1649.33 238.048H1641.25V264.34H1650.43C1652.98 264.34 1655.22 264.03 1657.14 263.409C1659.06 262.74 1660.66 261.833 1661.94 260.687C1663.22 259.493 1664.17 258.084 1664.81 256.46C1665.45 254.836 1665.77 253.021 1665.77 251.015Z" fill="#F7F5F0"/>
<path d="M603.6 169.074C604.325 171.241 604.778 172.957 604.96 174.221C605.141 175.485 604.899 176.448 604.234 177.11C603.57 177.712 602.391 178.074 600.698 178.194C599.006 178.375 596.679 178.465 593.717 178.465C590.634 178.465 588.216 178.405 586.463 178.284C584.771 178.224 583.471 178.074 582.564 177.833C581.658 177.532 581.023 177.141 580.66 176.659C580.298 176.177 579.995 175.545 579.754 174.763L571.865 151.285H527.8L520.365 174.131C520.123 174.973 519.791 175.696 519.368 176.298C519.005 176.84 518.37 177.291 517.463 177.652C516.617 177.953 515.378 178.164 513.746 178.284C512.174 178.405 510.089 178.465 507.49 178.465C504.709 178.465 502.533 178.375 500.962 178.194C499.39 178.013 498.302 177.592 497.697 176.93C497.093 176.207 496.881 175.214 497.063 173.95C497.244 172.686 497.697 171 498.423 168.893L534.6 65.2306C534.963 64.2072 535.386 63.3945 535.869 62.7925C536.353 62.1303 537.109 61.6488 538.136 61.3478C539.224 60.9866 540.705 60.7759 542.579 60.7157C544.453 60.5953 546.931 60.5351 550.014 60.5351C553.58 60.5351 556.421 60.5953 558.537 60.7157C560.653 60.7759 562.285 60.9866 563.433 61.3478C564.642 61.6488 565.488 62.1303 565.972 62.7925C566.516 63.4547 566.969 64.3577 567.332 65.5015L603.6 169.074ZM549.742 83.3806H549.651L533.059 133.045H566.334L549.742 83.3806Z" fill="#C4B48E"/>
<path d="M752.367 70.8291C752.367 72.5749 752.276 74.0799 752.095 75.344C751.974 76.548 751.763 77.5413 751.46 78.3239C751.158 79.0463 750.765 79.5881 750.282 79.9493C749.859 80.3104 749.375 80.491 748.831 80.491H719.454V174.672C719.454 175.274 719.242 175.816 718.819 176.298C718.457 176.779 717.822 177.171 716.915 177.472C716.009 177.773 714.769 178.013 713.198 178.194C711.687 178.375 709.783 178.465 707.486 178.465C705.189 178.465 703.254 178.375 701.683 178.194C700.172 178.013 698.963 177.773 698.056 177.472C697.149 177.171 696.484 176.779 696.061 176.298C695.699 175.816 695.517 175.274 695.517 174.672V80.491H666.14C665.536 80.491 665.022 80.3104 664.599 79.9493C664.176 79.5881 663.813 79.0463 663.511 78.3239C663.209 77.5413 662.967 76.548 662.785 75.344C662.664 74.0799 662.604 72.5749 662.604 70.8291C662.604 69.0231 662.664 67.4881 662.785 66.2239C662.967 64.9597 663.209 63.9664 663.511 63.244C663.813 62.4614 664.176 61.9197 664.599 61.6187C665.022 61.2575 665.536 61.0769 666.14 61.0769H748.831C749.375 61.0769 749.859 61.2575 750.282 61.6187C750.765 61.9197 751.158 62.4614 751.46 63.244C751.763 63.9664 751.974 64.9597 752.095 66.2239C752.276 67.4881 752.367 69.0231 752.367 70.8291Z" fill="#C4B48E"/>
<path d="M899.412 167.99C899.412 169.796 899.321 171.331 899.14 172.596C899.019 173.8 898.807 174.823 898.505 175.666C898.203 176.448 897.81 177.02 897.326 177.381C896.903 177.743 896.389 177.923 895.785 177.923H842.018C840.023 177.923 838.331 177.351 836.94 176.207C835.61 175.003 834.946 173.077 834.946 170.428V64.3276C834.946 63.7256 835.127 63.1838 835.49 62.7022C835.913 62.2206 836.578 61.8294 837.484 61.5284C838.391 61.2274 839.6 60.9866 841.111 60.806C842.683 60.6254 844.617 60.5351 846.914 60.5351C849.271 60.5351 851.206 60.6254 852.717 60.806C854.228 60.9866 855.437 61.2274 856.344 61.5284C857.25 61.8294 857.885 62.2206 858.248 62.7022C858.671 63.1838 858.882 63.7256 858.882 64.3276V158.328H895.785C896.389 158.328 896.903 158.509 897.326 158.87C897.81 159.171 898.203 159.713 898.505 160.496C898.807 161.218 899.019 162.211 899.14 163.475C899.321 164.679 899.412 166.184 899.412 167.99Z" fill="#C4B48E"/>
<path d="M1078.28 169.074C1079.01 171.241 1079.46 172.957 1079.64 174.221C1079.82 175.485 1079.58 176.448 1078.92 177.11C1078.25 177.712 1077.07 178.074 1075.38 178.194C1073.69 178.375 1071.36 178.465 1068.4 178.465C1065.32 178.465 1062.9 178.405 1061.14 178.284C1059.45 178.224 1058.15 178.074 1057.25 177.833C1056.34 177.532 1055.7 177.141 1055.34 176.659C1054.98 176.177 1054.68 175.545 1054.44 174.763L1046.55 151.285H1002.48L995.047 174.131C994.805 174.973 994.472 175.696 994.049 176.298C993.687 176.84 993.052 177.291 992.145 177.652C991.299 177.953 990.06 178.164 988.428 178.284C986.856 178.405 984.771 178.465 982.172 178.465C979.391 178.465 977.215 178.375 975.643 178.194C974.072 178.013 972.984 177.592 972.379 176.93C971.775 176.207 971.563 175.214 971.745 173.95C971.926 172.686 972.379 171 973.105 168.893L1009.28 65.2306C1009.64 64.2072 1010.07 63.3945 1010.55 62.7925C1011.03 62.1303 1011.79 61.6488 1012.82 61.3478C1013.91 60.9866 1015.39 60.7759 1017.26 60.7157C1019.13 60.5953 1021.61 60.5351 1024.7 60.5351C1028.26 60.5351 1031.1 60.5953 1033.22 60.7157C1035.33 60.7759 1036.97 60.9866 1038.11 61.3478C1039.32 61.6488 1040.17 62.1303 1040.65 62.7925C1041.2 63.4547 1041.65 64.3577 1042.01 65.5015L1078.28 169.074ZM1024.42 83.3806H1024.33L1007.74 133.045H1041.02L1024.42 83.3806Z" fill="#C4B48E"/>
<path d="M1260.23 169.616C1260.23 171 1259.99 172.234 1259.51 173.318C1259.03 174.401 1258.36 175.304 1257.51 176.027C1256.73 176.749 1255.76 177.291 1254.61 177.652C1253.52 177.953 1252.41 178.104 1251.26 178.104H1241.1C1238.99 178.104 1237.14 177.893 1235.57 177.472C1234.06 177.05 1232.64 176.298 1231.31 175.214C1230.04 174.07 1228.8 172.565 1227.59 170.699C1226.38 168.773 1225.02 166.305 1223.51 163.295L1194.32 108.664C1192.62 105.413 1190.9 101.922 1189.15 98.1895C1187.4 94.397 1185.82 90.7249 1184.43 87.1731H1184.25C1184.49 91.5075 1184.68 95.8418 1184.8 100.176C1184.92 104.45 1184.98 108.875 1184.98 113.45V174.582C1184.98 175.184 1184.8 175.726 1184.43 176.207C1184.13 176.689 1183.56 177.11 1182.71 177.472C1181.93 177.773 1180.84 178.013 1179.45 178.194C1178.06 178.375 1176.27 178.465 1174.1 178.465C1171.98 178.465 1170.23 178.375 1168.84 178.194C1167.45 178.013 1166.36 177.773 1165.57 177.472C1164.79 177.11 1164.24 176.689 1163.94 176.207C1163.64 175.726 1163.49 175.184 1163.49 174.582V69.5649C1163.49 66.7356 1164.31 64.6286 1165.94 63.244C1167.63 61.7993 1169.69 61.0769 1172.1 61.0769H1184.89C1187.18 61.0769 1189.12 61.2876 1190.69 61.709C1192.26 62.0701 1193.65 62.7022 1194.86 63.6052C1196.13 64.5082 1197.31 65.7724 1198.4 67.3978C1199.49 68.9629 1200.6 70.9194 1201.75 73.2672L1224.6 115.978C1225.93 118.567 1227.23 121.125 1228.5 123.654C1229.83 126.122 1231.1 128.62 1232.31 131.149C1233.52 133.617 1234.7 136.055 1235.84 138.463C1236.99 140.871 1238.11 143.279 1239.2 145.687H1239.29C1239.11 141.473 1238.96 137.078 1238.84 132.503C1238.78 127.928 1238.75 123.563 1238.75 119.41V64.5985C1238.75 63.9965 1238.93 63.4547 1239.29 62.9731C1239.65 62.4915 1240.26 62.0701 1241.1 61.709C1241.95 61.3478 1243.07 61.107 1244.46 60.9866C1245.85 60.806 1247.63 60.7157 1249.81 60.7157C1251.86 60.7157 1253.58 60.806 1254.98 60.9866C1256.37 61.107 1257.42 61.3478 1258.15 61.709C1258.93 62.0701 1259.48 62.4915 1259.78 62.9731C1260.08 63.4547 1260.23 63.9965 1260.23 64.5985V169.616Z" fill="#C4B48E"/>
<path d="M1432.67 70.8291C1432.67 72.5749 1432.58 74.0799 1432.39 75.344C1432.27 76.548 1432.06 77.5413 1431.76 78.3239C1431.46 79.0463 1431.06 79.5881 1430.58 79.9493C1430.16 80.3104 1429.67 80.491 1429.13 80.491H1399.75V174.672C1399.75 175.274 1399.54 175.816 1399.12 176.298C1398.76 176.779 1398.12 177.171 1397.21 177.472C1396.31 177.773 1395.07 178.013 1393.5 178.194C1391.99 178.375 1390.08 178.465 1387.78 178.465C1385.49 178.465 1383.55 178.375 1381.98 178.194C1380.47 178.013 1379.26 177.773 1378.35 177.472C1377.45 177.171 1376.78 176.779 1376.36 176.298C1376 175.816 1375.82 175.274 1375.82 174.672V80.491H1346.44C1345.83 80.491 1345.32 80.3104 1344.9 79.9493C1344.47 79.5881 1344.11 79.0463 1343.81 78.3239C1343.51 77.5413 1343.27 76.548 1343.08 75.344C1342.96 74.0799 1342.9 72.5749 1342.9 70.8291C1342.9 69.0231 1342.96 67.4881 1343.08 66.2239C1343.27 64.9597 1343.51 63.9664 1343.81 63.244C1344.11 62.4614 1344.47 61.9197 1344.9 61.6187C1345.32 61.2575 1345.83 61.0769 1346.44 61.0769H1429.13C1429.67 61.0769 1430.16 61.2575 1430.58 61.6187C1431.06 61.9197 1431.46 62.4614 1431.76 63.244C1432.06 63.9664 1432.27 64.9597 1432.39 66.2239C1432.58 67.4881 1432.67 69.0231 1432.67 70.8291Z" fill="#C4B48E"/>
<path d="M1539.18 174.672C1539.18 175.274 1538.97 175.816 1538.55 176.298C1538.18 176.779 1537.55 177.171 1536.64 177.472C1535.74 177.773 1534.53 178.013 1533.02 178.194C1531.5 178.375 1529.57 178.465 1527.21 178.465C1524.92 178.465 1522.98 178.375 1521.41 178.194C1519.9 178.013 1518.69 177.773 1517.78 177.472C1516.88 177.171 1516.21 176.779 1515.79 176.298C1515.43 175.816 1515.24 175.274 1515.24 174.672V64.3276C1515.24 63.7256 1515.43 63.1838 1515.79 62.7022C1516.21 62.2206 1516.88 61.8294 1517.78 61.5284C1518.75 61.2274 1519.99 60.9866 1521.5 60.806C1523.01 60.6254 1524.92 60.5351 1527.21 60.5351C1529.57 60.5351 1531.5 60.6254 1533.02 60.806C1534.53 60.9866 1535.74 61.2274 1536.64 61.5284C1537.55 61.8294 1538.18 62.2206 1538.55 62.7022C1538.97 63.1838 1539.18 63.7256 1539.18 64.3276V174.672Z" fill="#C4B48E"/>
<path d="M1703 142.887C1703 149.028 1701.85 154.415 1699.55 159.051C1697.26 163.686 1694.14 167.569 1690.22 170.699C1686.29 173.769 1681.69 176.087 1676.43 177.652C1671.17 179.217 1665.55 180 1659.57 180C1655.52 180 1651.74 179.669 1648.24 179.007C1644.79 178.345 1641.74 177.562 1639.08 176.659C1636.42 175.696 1634.18 174.702 1632.37 173.679C1630.62 172.656 1629.35 171.753 1628.56 170.97C1627.77 170.188 1627.2 169.074 1626.84 167.629C1626.54 166.124 1626.38 163.987 1626.38 161.218C1626.38 159.352 1626.44 157.787 1626.57 156.522C1626.69 155.258 1626.87 154.235 1627.11 153.452C1627.41 152.67 1627.77 152.128 1628.2 151.827C1628.68 151.466 1629.23 151.285 1629.83 151.285C1630.68 151.285 1631.85 151.797 1633.37 152.82C1634.94 153.783 1636.93 154.867 1639.35 156.071C1641.77 157.275 1644.64 158.389 1647.96 159.412C1651.35 160.375 1655.25 160.857 1659.66 160.857C1662.56 160.857 1665.16 160.526 1667.46 159.863C1669.75 159.141 1671.69 158.148 1673.26 156.884C1674.89 155.619 1676.13 154.054 1676.98 152.188C1677.82 150.322 1678.25 148.245 1678.25 145.957C1678.25 143.309 1677.52 141.051 1676.07 139.185C1674.62 137.259 1672.72 135.573 1670.36 134.128C1668.06 132.623 1665.43 131.239 1662.47 129.975C1659.51 128.65 1656.46 127.266 1653.31 125.821C1650.17 124.376 1647.12 122.751 1644.16 120.945C1641.19 119.079 1638.53 116.881 1636.18 114.353C1633.88 111.764 1632.01 108.724 1630.55 105.233C1629.1 101.741 1628.38 97.5575 1628.38 92.6813C1628.38 87.0828 1629.41 82.1766 1631.46 77.9627C1633.58 73.6886 1636.39 70.1669 1639.89 67.3978C1643.46 64.5684 1647.63 62.4614 1652.41 61.0769C1657.24 59.6923 1662.35 59 1667.73 59C1670.51 59 1673.29 59.2107 1676.07 59.6321C1678.85 60.0535 1681.45 60.6254 1683.87 61.3478C1686.29 62.0701 1688.43 62.8828 1690.31 63.7858C1692.18 64.6888 1693.42 65.4413 1694.02 66.0433C1694.63 66.6453 1695.02 67.157 1695.2 67.5784C1695.44 67.9998 1695.63 68.5716 1695.75 69.294C1695.93 69.9562 1696.05 70.8291 1696.11 71.9127C1696.17 72.9361 1696.2 74.2303 1696.2 75.7955C1696.2 77.5413 1696.14 79.0162 1696.02 80.2201C1695.96 81.4241 1695.81 82.4174 1695.57 83.2C1695.38 83.9826 1695.08 84.5545 1694.66 84.9157C1694.3 85.2769 1693.78 85.4575 1693.12 85.4575C1692.45 85.4575 1691.39 85.0361 1689.94 84.1933C1688.49 83.3505 1686.71 82.4475 1684.59 81.4843C1682.48 80.4609 1680.03 79.558 1677.25 78.7754C1674.47 77.9326 1671.42 77.5112 1668.09 77.5112C1665.49 77.5112 1663.23 77.8423 1661.29 78.5045C1659.36 79.1065 1657.73 79.9794 1656.4 81.1231C1655.13 82.2067 1654.16 83.5311 1653.49 85.0963C1652.89 86.6614 1652.59 88.3169 1652.59 90.0627C1652.59 92.6512 1653.28 94.9087 1654.67 96.8351C1656.12 98.7012 1658.03 100.387 1660.39 101.892C1662.8 103.337 1665.52 104.721 1668.55 106.046C1671.57 107.31 1674.65 108.664 1677.79 110.109C1680.94 111.554 1684.02 113.209 1687.04 115.075C1690.06 116.881 1692.75 119.079 1695.11 121.667C1697.47 124.196 1699.37 127.205 1700.82 130.697C1702.27 134.128 1703 138.192 1703 142.887Z" fill="#C4B48E"/>
</svg>
